<svg xmlns="http://www.w3.org/2000/svg" viewBox="0 0 321 321" width="321" height="321" role="img" aria-label="InterlinedList">
  <path fill="#184860" fill-rule="evenodd" d="M74.1 99.8 L 102.4 99.7 L 124.3 99.7 L 139.6 99.9 L 148.4 100.3 L 150.6 100.8 L 153.6 102.2 L 157.4 104.6 L 161.9 107.9 L 167.1 112.1 L 172.0 116.2 L 176.4 120.2 L 180.4 123.9 L 184.1 127.6 L 187.3 131.0 L 190.3 134.3 L 192.9 137.5 L 195.1 140.5 L 197.1 143.6 L 198.9 146.7 L 200.4 149.9 L 201.6 153.1 L 202.6 156.0 L 203.2 158.5 L 203.5 160.6 L 203.5 162.4 L 203.3 164.3 L 202.9 166.4 L 202.4 168.8 L 201.6 171.3 L 200.6 173.8 L 199.4 176.4 L 197.9 179.1 L 196.1 181.9 L 192.7 186.0 L 187.7 191.4 L 180.9 198.2 L 172.6 206.3 L 165.5 212.7 L 159.8 217.4 L 155.5 220.4 L 152.5 221.6 L 149.8 222.6 L 147.3 223.2 L 145.0 223.5 L 143.0 223.5 L 141.5 222.5 L 140.4 220.6 L 139.8 217.7 L 139.7 213.8 L 139.9 210.9 L 140.6 208.9 L 141.6 207.8 L 142.9 207.7 L 144.4 207.4 L 146.0 207.0 L 147.6 206.4 L 149.4 205.6 L 152.8 202.9 L 157.8 198.2 L 164.6 191.6 L 172.9 182.9 L 179.3 176.2 L 183.8 171.2 L 186.3 168.1 L 186.8 166.9 L 187.1 165.6 L 187.4 164.2 L 187.5 162.8 L 187.5 161.3 L 187.1 159.4 L 186.4 157.3 L 185.3 154.9 L 183.8 152.1 L 181.0 148.5 L 177.1 143.9 L 171.9 138.4 L 165.6 132.1 L 160.3 126.9 L 156.1 123.0 L 153.0 120.3 L 151.0 118.8 L 142.3 117.6 L 126.9 116.7 L 104.9 116.1 L 76.1 115.9 L 54.3 115.6 L 39.4 115.4 L 31.5 115.1 L 30.5 114.9 L 29.5 114.5 L 28.6 113.9 L 27.7 113.2 L 26.8 112.3 L 26.2 111.2 L 25.9 109.7 L 25.9 108.0 L 26.1 106.0 L 26.6 104.3 L 27.4 102.9 L 28.4 101.9 L 29.6 101.1 L 37.7 100.5 L 52.5 100.1 L 74.1 99.8 Z M60.7 153.8 L 80.8 153.7 L 95.9 154.6 L 106.1 156.4 L 111.2 159.3 L 111.3 163.2 L 106.4 166.1 L 96.4 168.1 L 81.3 169.2 L 61.2 169.3 L 45.8 169.1 L 35.0 168.4 L 28.9 167.4 L 27.6 166.1 L 26.5 164.7 L 25.8 163.4 L 25.5 162.1 L 25.5 160.9 L 25.8 159.6 L 26.4 158.4 L 27.4 157.1 L 28.6 155.9 L 34.6 154.9 L 45.3 154.2 L 60.7 153.8 Z M60.7 207.8 L 80.8 207.7 L 95.9 208.6 L 106.1 210.4 L 111.2 213.3 L 111.3 217.2 L 106.4 220.1 L 96.4 222.1 L 81.3 223.2 L 61.2 223.3 L 45.8 223.1 L 35.0 222.4 L 28.9 221.4 L 27.6 220.1 L 26.5 218.7 L 25.8 217.4 L 25.5 216.1 L 25.5 214.9 L 25.8 213.6 L 26.4 212.4 L 27.4 211.1 L 28.6 209.9 L 34.6 208.9 L 45.3 208.2 L 60.7 207.8 Z"></path>
  <path fill="#2FA877" fill-rule="evenodd" d="M162.2 57.2 L 165.3 57.3 L 168.5 57.8 L 171.8 58.6 L 175.3 59.8 L 178.8 61.3 L 182.0 63.0 L 185.1 64.9 L 187.9 67.1 L 190.6 69.4 L 192.8 71.7 L 194.8 73.9 L 196.4 76.0 L 197.6 78.0 L 198.8 80.1 L 199.8 82.2 L 200.6 84.4 L 201.4 86.6 L 202.0 89.1 L 202.5 91.7 L 202.9 94.5 L 203.1 97.5 L 203.0 100.7 L 202.5 104.1 L 201.6 107.6 L 200.4 111.4 L 199.0 114.8 L 197.4 117.8 L 195.7 120.6 L 193.8 122.9 L 191.6 124.0 L 189.1 123.8 L 186.3 122.2 L 183.2 119.3 L 181.3 116.5 L 180.6 113.8 L 181.1 111.3 L 182.9 108.8 L 184.2 106.1 L 185.1 103.2 L 185.5 100.1 L 185.5 96.9 L 185.2 93.9 L 184.6 91.1 L 183.6 88.6 L 182.4 86.4 L 180.8 84.2 L 178.8 82.2 L 176.6 80.2 L 173.9 78.3 L 171.0 76.8 L 167.7 75.8 L 164.0 75.1 L 160.0 74.9 L 156.4 74.9 L 153.3 75.3 L 150.6 76.0 L 148.4 77.0 L 146.3 78.1 L 144.5 79.3 L 142.9 80.6 L 141.6 81.9 L 140.3 83.6 L 139.0 85.4 L 137.8 87.6 L 136.7 89.9 L 134.8 91.7 L 132.0 92.8 L 128.4 93.3 L 124.1 93.2 L 121.2 92.0 L 119.9 89.8 L 120.1 86.6 L 121.9 82.4 L 123.8 78.5 L 125.8 75.1 L 128.1 72.1 L 130.4 69.4 L 132.9 67.1 L 135.5 65.0 L 138.1 63.3 L 140.9 61.8 L 143.7 60.5 L 146.7 59.4 L 149.7 58.6 L 152.8 57.9 L 155.9 57.5 L 159.1 57.3 L 162.2 57.2 Z M33.5 99.0 L 140.5 99.0 L 33.5 99.0 Z M237.2 98.8 L 256.3 98.7 L 271.0 98.7 L 281.2 98.7 L 286.9 98.9 L 288.1 99.1 L 289.3 99.5 L 290.5 100.1 L 291.7 100.8 L 292.8 101.7 L 293.7 102.8 L 294.4 104.1 L 294.9 105.6 L 295.1 107.4 L 295.0 109.0 L 294.6 110.6 L 293.8 112.1 L 292.7 113.4 L 291.5 114.5 L 290.2 115.3 L 288.8 115.9 L 287.3 116.1 L 281.2 116.3 L 270.6 116.4 L 255.4 116.5 L 235.6 116.5 L 220.7 116.4 L 210.7 116.2 L 205.4 115.9 L 205.1 115.6 L 204.9 115.1 L 205.0 114.5 L 205.3 113.9 L 205.8 113.1 L 206.3 111.8 L 206.8 109.8 L 207.3 107.1 L 207.8 103.9 L 212.9 101.4 L 222.7 99.7 L 237.2 98.8 Z M145.5 100.0 L 149.5 100.0 L 145.5 100.0 Z M151.5 101.0 L 153.5 101.0 L 151.5 101.0 Z M24.5 106.0 L 25.0 110.5 L 24.5 106.0 Z M29.5 115.0 L 32.5 115.0 L 29.5 115.0 Z M35.5 116.0 L 143.5 116.0 L 35.5 116.0 Z M146.5 117.0 L 148.5 117.0 L 146.5 117.0 Z M124.9 146.8 L 126.6 146.7 L 128.1 147.0 L 129.6 147.8 L 131.1 148.9 L 132.4 150.6 L 133.5 156.5 L 134.2 166.7 L 134.5 181.1 L 134.5 199.9 L 134.8 214.6 L 135.4 225.4 L 136.4 232.1 L 137.6 234.9 L 139.3 237.5 L 141.3 239.9 L 143.8 242.2 L 146.7 244.3 L 149.8 246.0 L 153.3 247.2 L 157.0 247.9 L 161.0 248.1 L 164.4 248.1 L 167.3 247.9 L 169.6 247.4 L 171.4 246.6 L 173.2 245.6 L 175.0 244.3 L 176.8 242.7 L 178.7 240.8 L 180.4 238.6 L 182.1 235.9 L 183.6 232.9 L 184.9 229.6 L 186.9 227.3 L 189.6 226.2 L 192.8 226.2 L 196.7 227.3 L 199.6 228.4 L 201.5 229.5 L 202.5 230.5 L 202.5 231.5 L 202.2 233.0 L 201.6 235.0 L 200.6 237.5 L 199.4 240.5 L 197.5 243.7 L 194.9 247.2 L 191.7 250.8 L 187.8 254.7 L 184.1 257.9 L 180.5 260.5 L 177.1 262.4 L 173.9 263.6 L 170.4 264.6 L 166.6 265.2 L 162.6 265.5 L 158.4 265.5 L 154.2 265.1 L 150.1 264.2 L 146.0 262.9 L 142.0 261.1 L 138.3 259.1 L 134.8 256.8 L 131.7 254.2 L 128.8 251.3 L 126.3 248.5 L 124.3 245.8 L 122.6 243.3 L 121.4 240.8 L 120.3 238.3 L 119.4 235.9 L 118.8 233.6 L 118.3 231.4 L 117.8 227.2 L 117.4 221.1 L 117.1 213.0 L 116.9 203.0 L 116.8 193.3 L 116.8 183.8 L 116.9 174.5 L 117.1 165.5 L 117.6 158.4 L 118.4 153.3 L 119.4 150.1 L 120.6 148.9 L 122.0 147.9 L 123.4 147.2 L 124.9 146.8 Z M201.5 152.0 L 202.0 153.5 L 201.5 152.0 Z M31.5 153.0 L 111.5 153.0 L 31.5 153.0 Z M237.9 152.8 L 257.6 152.7 L 272.5 152.7 L 282.8 152.7 L 288.5 152.9 L 289.5 153.1 L 290.5 153.5 L 291.4 154.1 L 292.3 154.8 L 293.2 155.7 L 293.9 156.8 L 294.5 158.1 L 294.9 159.6 L 295.1 161.4 L 295.1 163.0 L 294.8 164.4 L 294.2 165.7 L 293.3 166.8 L 292.2 167.8 L 290.9 168.6 L 289.4 169.3 L 287.6 169.8 L 281.6 170.1 L 271.2 170.4 L 256.5 170.5 L 237.5 170.5 L 223.2 169.4 L 213.7 167.2 L 208.8 163.9 L 208.7 159.6 L 213.5 156.3 L 223.3 154.0 L 237.9 152.8 Z M111.5 154.0 L 112.0 169.5 L 111.5 154.0 Z M202.5 155.0 L 203.0 157.5 L 202.5 155.0 Z M186.5 159.0 L 187.0 165.5 L 186.5 159.0 Z M24.5 160.0 L 25.0 163.5 L 24.5 160.0 Z M202.5 166.0 L 203.0 168.5 L 202.5 166.0 Z M185.5 167.0 L 186.0 168.5 L 185.5 167.0 Z M34.5 170.0 L 111.5 170.0 L 34.5 170.0 Z M200.5 173.0 L 201.0 174.5 L 200.5 173.0 Z M32.5 207.0 L 111.5 207.0 L 32.5 207.0 Z M141.5 207.0 L 145.5 207.0 L 141.5 207.0 Z M111.5 208.0 L 112.0 223.5 L 111.5 208.0 Z M24.5 214.0 L 25.0 217.5 L 24.5 214.0 Z M151.5 222.0 L 153.5 222.0 L 151.5 222.0 Z M148.5 223.0 L 150.5 223.0 L 148.5 223.0 Z M35.5 224.0 L 111.5 224.0 L 35.5 224.0 Z M139.5 224.0 L 144.5 224.0 L 139.5 224.0 Z"></path>
  <path fill="#F0A830" fill-rule="evenodd" d="M162.5 57.0 L 165.5 57.0 L 162.5 57.0 Z M127.5 94.0 L 134.5 94.0 L 127.5 94.0 Z M202.5 94.0 L 203.0 95.5 L 202.5 94.0 Z M185.5 96.0 L 186.0 98.5 L 185.5 96.0 Z M140.5 99.0 L 143.5 99.0 L 140.5 99.0 Z M185.5 100.0 L 186.0 101.5 L 185.5 100.0 Z M207.5 100.0 L 208.0 101.5 L 207.5 100.0 Z M285.5 116.0 L 287.5 116.0 L 285.5 116.0 Z M122.7 120.8 L 124.8 120.7 L 126.8 120.7 L 128.7 120.8 L 130.4 121.1 L 132.1 121.4 L 133.3 122.4 L 134.1 124.0 L 134.5 126.1 L 134.5 128.9 L 134.3 131.3 L 134.0 133.3 L 133.6 135.1 L 132.9 136.4 L 132.2 137.6 L 131.4 138.5 L 130.5 139.3 L 129.5 139.8 L 128.4 140.1 L 127.3 140.4 L 126.1 140.5 L 124.9 140.5 L 123.7 140.3 L 122.7 140.0 L 121.7 139.6 L 120.8 138.9 L 120.0 137.8 L 119.2 136.3 L 118.4 134.3 L 117.6 131.8 L 117.1 129.5 L 116.9 127.5 L 116.9 125.8 L 117.1 124.3 L 117.4 123.1 L 117.8 122.2 L 118.3 121.6 L 118.8 121.4 L 119.7 121.2 L 121.0 121.0 L 122.7 120.8 Z M158.4 134.2 L 159.1 134.3 L 160.2 135.1 L 161.8 136.4 L 163.9 138.4 L 166.6 141.1 L 168.0 143.8 L 168.2 146.6 L 167.1 149.5 L 164.9 152.5 L 163.3 155.4 L 162.3 158.3 L 161.9 161.1 L 162.1 163.9 L 162.8 166.6 L 163.9 169.2 L 165.5 171.8 L 167.5 174.3 L 168.3 176.9 L 167.8 179.7 L 166.2 182.7 L 163.3 185.8 L 160.6 187.5 L 157.9 187.8 L 155.4 186.6 L 153.1 183.9 L 151.0 181.2 L 149.2 178.4 L 147.6 175.5 L 146.4 172.5 L 145.5 169.3 L 145.0 165.8 L 144.9 162.0 L 145.1 158.0 L 145.6 154.4 L 146.4 151.1 L 147.4 148.3 L 148.6 145.8 L 150.0 143.4 L 151.5 141.1 L 153.1 139.0 L 154.9 137.0 L 156.3 135.5 L 157.5 134.6 L 158.4 134.2 Z M203.5 160.0 L 204.0 163.5 L 203.5 160.0 Z M116.5 169.0 L 117.0 187.5 L 116.5 169.0 Z M32.5 170.0 L 34.5 170.0 L 32.5 170.0 Z M285.5 170.0 L 288.5 170.0 L 285.5 170.0 Z M116.5 189.0 L 117.0 213.5 L 116.5 189.0 Z M189.8 198.2 L 190.7 198.3 L 191.7 198.8 L 192.9 199.6 L 194.3 200.8 L 195.8 202.3 L 197.2 203.5 L 198.6 204.5 L 199.9 205.3 L 201.1 205.8 L 207.4 206.1 L 218.6 206.4 L 234.9 206.5 L 256.1 206.5 L 272.5 206.8 L 283.9 207.3 L 290.4 208.2 L 292.1 209.3 L 293.3 210.7 L 294.3 212.2 L 294.9 214.0 L 295.1 216.0 L 294.8 217.8 L 294.0 219.5 L 292.7 221.1 L 290.8 222.4 L 283.8 223.4 L 271.8 224.0 L 254.6 224.1 L 232.4 223.9 L 215.1 223.4 L 202.7 222.8 L 195.3 222.0 L 192.8 221.0 L 190.2 219.7 L 187.5 218.0 L 184.7 215.9 L 181.8 213.6 L 180.3 211.0 L 180.3 208.3 L 181.6 205.5 L 184.4 202.5 L 186.7 200.3 L 188.5 198.8 L 189.8 198.2 Z M139.5 207.0 L 141.5 207.0 L 139.5 207.0 Z M33.5 224.0 L 35.5 224.0 L 33.5 224.0 Z M144.5 224.0 L 146.5 224.0 L 144.5 224.0 Z M117.5 229.0 L 118.0 230.5 L 117.5 229.0 Z M158.5 266.0 L 163.5 266.0 L 158.5 266.0 Z"></path>
</svg>